<?xml version="1.0" encoding="UTF-8"?>
<svg width="20px" height="20px" viewBox="0 0 20 20" version="1.1" xmlns="http://www.w3.org/2000/svg" xmlns:xlink="http://www.w3.org/1999/xlink">
    <!-- Generator: sketchtool 54.1 (76490) - https://sketchapp.com -->
    <title>D8BDCA55-8206-4A6B-A5A5-3827AD0B7B08</title>
    <desc>Created with sketchtool.</desc>
    <g id="Page-1" stroke="none" stroke-width="1" fill="none" fill-rule="evenodd">
        <g id="Coming_Soon_1" transform="translate(-1340.000000, -699.000000)">
            <rect fill="#FFFFFF" x="0" y="0" width="1600" height="900"></rect>
            <rect id="Rectangle" fill="#78B1E3" opacity="0.18031529" x="1066" y="418" width="534" height="335"></rect>
            <g id="Group-5" transform="translate(1273.000000, 699.000000)" fill="#9B9B9B" fill-rule="nonzero">
                <g id="Icon-/-social-media-/-ic_linkedin" transform="translate(67.000000, 0.000000)">
                    <g id="logo-linkedin">
                        <path d="M19.1666667,0 L0.833333333,0 C0.333333333,0 0,0.333333333 0,0.833333333 L0,19.1666667 C0,19.6666667 0.333333333,20 0.833333333,20 L19.1666667,20 C19.6666667,20 20,19.6666667 20,19.1666667 L20,0.833333333 C20,0.333333333 19.6666667,0 19.1666667,0 Z M5.91666651,17.0833333 L2.99999992,17.0833333 L2.99999992,7.5 L5.99999992,7.5 L5.99999984,17.0833333 L5.91666651,17.0833333 Z M4.41666663,6.16666655 C3.5,6.16666655 2.66666671,5.41666658 2.66666671,4.41666663 C2.66666671,3.5 3.41666667,2.66666671 4.41666663,2.66666671 C5.33333325,2.66666671 6.16666655,3.41666667 6.16666655,4.41666663 C6.16666655,5.41666658 5.41666658,6.16666655 4.41666663,6.16666655 Z M17.0833333,17.0833333 L14.0833332,17.0833333 L14.0833332,12.4166667 C14.0833332,11.3333334 14.0833332,9.91666678 12.5833332,9.91666678 C10.9999998,9.91666678 10.8333331,11.0833334 10.833333,12.3333335 L10.8333331,17.0833333 L7.83333302,17.0833333 L7.83333302,7.50000016 L10.6666664,7.50000016 L10.6666664,8.83333347 L10.6666664,8.83333347 C11.0833331,8.08333348 11.9999998,7.33333349 13.4999999,7.33333349 C16.5,7.33333349 17.0833333,9.33333346 17.0833333,11.9166668 L17.0833333,17.0833333 Z" id="Shape"></path>
                    </g>
                </g>
            </g>
        </g>
    </g>
</svg>