<?xml version="1.0" encoding="UTF-8"?>
<svg width="20px" height="20px" viewBox="0 0 20 20" version="1.1" xmlns="http://www.w3.org/2000/svg" xmlns:xlink="http://www.w3.org/1999/xlink">
    <!-- Generator: sketchtool 54.1 (76490) - https://sketchapp.com -->
    <title>43B03712-15D1-4DD7-9422-11E2CF1FC76C</title>
    <desc>Created with sketchtool.</desc>
    <g id="Page-1" stroke="none" stroke-width="1" fill="none" fill-rule="evenodd">
        <g id="Coming_Soon_1" transform="translate(-1373.000000, -699.000000)">
            <rect fill="#FFFFFF" x="0" y="0" width="1600" height="900"></rect>
            <rect id="Rectangle" fill="#78B1E3" opacity="0.18031529" x="1066" y="418" width="534" height="335"></rect>
            <g id="Group-5" transform="translate(1273.000000, 699.000000)" fill="#9B9B9B" fill-rule="nonzero">
                <g id="Icon-/-social-media-/-ic_twitter" transform="translate(100.000000, 0.000000)">
                    <g id="logo-twitter" transform="translate(0.000000, 1.666667)">
                        <path d="M20,2.16666664 C19.25,2.49999997 18.5,2.75000001 17.6666667,2.83333329 C18.5,2.3333333 19.1666667,1.49999999 19.5,0.583333337 C18.6666667,1.08333333 17.8333333,1.41666665 16.9166667,1.58333332 C16.1666667,0.75 15.0833333,0.25000001 13.9166667,0.25000001 C11.6666667,0.25000001 9.83333333,2.08333331 9.83333333,4.33333326 C9.83333333,4.66666659 9.83333333,4.99999992 9.91666667,5.24999991 C6.41666667,5.08333325 3.41666667,3.41666661 1.41666667,0.916666663 C1,1.58333332 0.833333333,2.24999997 0.833333333,2.99999996 C0.833333333,4.41666659 1.58333333,5.66666657 2.66666667,6.41666656 C2,6.41666656 1.33333333,6.24999989 0.833333333,5.91666657 C0.833333333,5.91666657 0.833333333,5.91666657 0.833333333,5.9999999 C0.833333333,7.99999986 2.25,9.66666649 4.08333333,9.99999982 C3.75,10.0833331 3.41666667,10.1666665 3,10.1666665 C2.75,10.1666665 2.5,10.1666665 2.25,10.0833331 C2.75,11.7499998 4.25,12.9166664 6.08333333,12.9166664 C4.66666667,13.9999997 2.91666667,14.6666664 1,14.6666664 C0.666666667,14.6666664 0.333333333,14.6666664 1.48029737e-15,14.5833331 C1.83333333,15.7499997 4,16.4166664 6.25,16.4166664 C13.8333333,16.4166664 17.9166667,10.1666665 17.9166667,4.74999992 C17.9166667,4.58333326 17.9166667,4.41666659 17.9166667,4.24999993 C18.75,3.66666661 19.4166667,2.91666662 20,2.16666664 Z" id="Path"></path>
                    </g>
                </g>
            </g>
        </g>
    </g>
</svg>